<svg width="50" height="50" viewBox="0 0 50 50" fill="none" xmlns="http://www.w3.org/2000/svg">
<path fill-rule="evenodd" clip-rule="evenodd" d="M16.2894 3.97117C18.4027 1.54085 21.5213 0 25 0C28.4785 0 31.597 1.5407 33.7102 3.97081C36.9233 3.74632 40.2185 4.86194 42.6785 7.32198C45.1386 9.782 46.2542 13.0771 46.0297 16.2902C48.4595 18.4035 50 21.5218 50 25C50 28.4789 48.459 31.5977 46.0284 33.711C46.2524 36.9235 45.1367 40.218 42.6771 42.6776C40.2175 45.1372 36.923 46.2529 33.7105 46.0289C31.5972 48.4592 28.4786 50 25 50C21.5215 50 18.4031 48.4593 16.2898 46.0293C13.0767 46.2538 9.78153 45.1382 7.32147 42.6781C4.86143 40.2181 3.74579 36.9229 3.97029 33.7098C1.54048 31.5965 0 28.4783 0 25C0 21.5216 1.54063 18.4031 3.97065 16.2899C3.74641 13.077 4.86207 9.78223 7.3219 7.32241C9.78174 4.86256 13.0766 3.74691 16.2894 3.97117ZM34.2572 20.3485C34.8745 19.4843 34.6743 18.2832 33.8101 17.6659C32.9458 17.0486 31.7448 17.2487 31.1274 18.113L22.8315 29.7273L18.6675 25.5633C17.9165 24.8122 16.6989 24.8122 15.9479 25.5633C15.1969 26.3143 15.1969 27.5319 15.9479 28.2829L21.7171 34.0521C22.1168 34.4519 22.6722 34.6555 23.2355 34.6088C23.7989 34.5622 24.3132 34.2701 24.6418 33.8101L34.2572 20.3485Z" fill="#E5E5E5"/>
</svg>
